<svg height="512pt" viewBox="0 0 512 512" width="512pt" xmlns="http://www.w3.org/2000/svg" xmlns:xlink="http://www.w3.org/1999/xlink"><linearGradient id="a" gradientUnits="userSpaceOnUse" x1="0" x2="512" y1="256" y2="256"><stop offset="0" stop-color="#00f1ff"/><stop offset=".231" stop-color="#00d8ff"/><stop offset=".5138" stop-color="#00c0ff"/><stop offset=".7773" stop-color="#00b2ff"/><stop offset="1" stop-color="#00adff"/></linearGradient><path d="m512 256c0 141.386719-114.613281 256-256 256s-256-114.613281-256-256 114.613281-256 256-256 256 114.613281 256 256zm0 0" fill="url(#a)"/><path d="m269.351562 428.535156h-26.703124c-22.992188 0-41.699219-18.707031-41.699219-41.699218v-76.449219h-75.785157c-22.992187 0-41.699218-18.707031-41.699218-41.703125v-26.699219c0-22.996094 18.707031-41.703125 41.699218-41.703125h75.785157v-75.113281c0-22.996094 18.707031-41.703125 41.699219-41.703125h26.703124c22.992188 0 41.699219 18.707031 41.699219 41.703125v75.113281h75.785157c22.992187 0 41.699218 18.707031 41.699218 41.703125v26.699219c0 22.996094-18.707031 41.703125-41.699218 41.703125h-75.785157v9.695312c0 8.285157-6.714843 15-15 15-8.285156 0-15-6.714843-15-15v-24.695312c0-8.285157 6.714844-15 15-15h90.785157c6.449218 0 11.699218-5.25 11.699218-11.703125v-26.699219c0-6.453125-5.25-11.703125-11.699218-11.703125h-90.785157c-8.285156 0-15-6.714844-15-15v-90.113281c0-6.453125-5.25-11.703125-11.699219-11.703125h-26.703124c-6.449219 0-11.699219 5.25-11.699219 11.703125v90.113281c0 8.285156-6.714844 15-15 15h-90.785157c-6.449218 0-11.699218 5.25-11.699218 11.703125v26.699219c0 6.453125 5.25 11.703125 11.699218 11.703125h90.785157c8.285156 0 15 6.714843 15 15v91.449219c0 6.449218 5.25 11.699218 11.699219 11.699218h26.703124c6.449219 0 11.699219-5.25 11.699219-11.699218 0-8.285157 6.714844-15 15-15 8.285157 0 15 6.714843 15 15 0 22.992187-18.707031 41.699218-41.699219 41.699218zm0 0" fill="#fff"/></svg>